HIERARCHY
ROOT Hips
{
	OFFSET -3.958830 18.904000 13.208200
	CHANNELS 6 Xposition Yposition Zposition Zrotation Yrotation Xrotation 
	JOINT LHipJoint
	{
		OFFSET 0.000000 0.000000 0.000000
		CHANNELS 3 Zrotation Yrotation Xrotation
		JOINT LeftUpLeg
		{
			OFFSET 1.800000 -1.400000 0.085000
			CHANNELS 3 Zrotation Yrotation Xrotation
			JOINT LeftLeg
			{
				OFFSET 2.215000 -6.000000 0.000000
				CHANNELS 3 Zrotation Yrotation Xrotation
				JOINT LeftFoot
				{
					OFFSET 2.500000 -6.900000 0.000000
					CHANNELS 3 Zrotation Yrotation Xrotation
					JOINT LeftToeBase
					{
						OFFSET 0.200000 -0.500000 1.950000
						CHANNELS 3 Zrotation Yrotation Xrotation
						End Site
						{
							OFFSET 0.000000 0.000000 0.000000
						}
					}
				}
			}
		}
	}
	JOINT RHipJoint
	{
		OFFSET 0.000000 0.000000 0.000000
		CHANNELS 3 Zrotation Yrotation Xrotation
		JOINT RightUpLeg
		{
			OFFSET -1.800000 -1.400000 0.085000
			CHANNELS 3 Zrotation Yrotation Xrotation
			JOINT RightLeg
			{
				OFFSET -2.215000 -6.000000 0.000000
				CHANNELS 3 Zrotation Yrotation Xrotation
				JOINT RightFoot
				{
					OFFSET -2.500000 -6.900000 0.000000
					CHANNELS 3 Zrotation Yrotation Xrotation
					JOINT RightToeBase
					{
						OFFSET -0.200000 -0.500000 1.950000
						CHANNELS 3 Zrotation Yrotation Xrotation
						End Site
						{
							OFFSET 0.000000 0.000000 0.000000
						}
					}
				}
			}
		}
	}
	JOINT LowerBack
	{
		OFFSET 0.000000 0.000000 0.000000
		CHANNELS 3 Zrotation Yrotation Xrotation
		JOINT Spine
		{
			OFFSET -0.087000 1.940000 -0.288900
			CHANNELS 3 Zrotation Yrotation Xrotation
			JOINT Spine1
			{
				OFFSET 0.000000 1.950000 0.060000
				CHANNELS 3 Zrotation Yrotation Xrotation
				JOINT Neck
				{
					OFFSET 0.000000 0.000000 0.000000
					CHANNELS 3 Zrotation Yrotation Xrotation
					JOINT Neck1
					{
						OFFSET 0.000000 1.600000 0.340000
						CHANNELS 3 Zrotation Yrotation Xrotation
						JOINT Head
						{
							OFFSET 0.000000 1.667000 -0.240000
							CHANNELS 3 Zrotation Yrotation Xrotation
							End Site
							{
								OFFSET 0.000000 0.000000 0.000000
							}
						}
					}
				}
				JOINT LeftShoulder
				{
					OFFSET 0.000000 0.000000 0.000000
					CHANNELS 3 Zrotation Yrotation Xrotation
					JOINT LeftArm
					{
						OFFSET 2.700000 1.550000 -0.730000
						CHANNELS 3 Zrotation Yrotation Xrotation
						JOINT LeftForeArm
						{
							OFFSET 5.450000 0.000000 0.000000
							CHANNELS 3 Zrotation Yrotation Xrotation
							JOINT LeftHand
							{
								OFFSET 3.450000 0.000000 0.000000
								CHANNELS 3 Zrotation Yrotation Xrotation
								JOINT LeftHandIndex1
								{
									OFFSET 0.750000 0.000000 0.000000
									CHANNELS 3 Zrotation Yrotation Xrotation
									End Site
									{
										OFFSET 0.000000 0.000000 0.000000
									}
								}
							}
						}
					}
				}
				JOINT RightShoulder
				{
					OFFSET 0.000000 0.000000 0.000000
					CHANNELS 3 Zrotation Yrotation Xrotation
					JOINT RightArm
					{
						OFFSET -2.700000 1.550000 -0.730000
						CHANNELS 3 Zrotation Yrotation Xrotation
						JOINT RightForeArm
						{
							OFFSET -5.450000 0.000000 0.000000
							CHANNELS 3 Zrotation Yrotation Xrotation
							JOINT RightHand
							{
								OFFSET -3.450000 0.000000 0.000000
								CHANNELS 3 Zrotation Yrotation Xrotation
								JOINT RightHandIndex1
								{
									OFFSET -0.750000 0.000000 0.000000
									CHANNELS 3 Zrotation Yrotation Xrotation
									End Site
									{
										OFFSET 0.000000 0.000000 0.000000
									}
								}
							}
						}
					}
				}
			}
		}
	}
}
MOTION
Frames: 14
Frame Time: 0.016667
0.343180 16.756770 -0.981900 -4.903362 -4.200510 1.201133 -14.973013 13.612455 3.025444 4.116450 -1.434454 -12.063485 -9.360757 7.888054 21.168779 -0.699909 5.658867 3.140843 0.385000 -0.290910 0.199080 18.299160 -11.242260 2.896010 0.053321 1.848372 -11.403514 6.035648 -6.604041 21.667393 -0.609751 -4.135772 3.288817 -0.154300 0.805160 0.465660 -3.793098 -1.478835 -7.617580 11.815593 0.012665 12.398753 -4.176614 1.539338 0.525523 3.208781 -3.783779 -9.426334 -7.862320 4.092701 34.157742 -2.431880 1.810820 -16.628940 -29.326025 -9.856948 3.320433 -48.577679 -2.696219 -3.630764 -19.205655 -21.584932 0.236629 -3.843975 2.545161 1.155190 0.303460 -0.077300 0.474380 22.691482 14.624018 6.843648 52.101350 7.095590 -5.412844 20.151397 23.074290 2.012602 1.674670 -1.169076 -0.521490 0.593320 0.129360 -0.289720 
0.344470 16.752420 -0.985960 -4.851097 -4.165150 1.074504 -14.979791 13.620785 3.042410 4.215613 -1.493930 -12.256605 -9.560692 8.051370 21.653193 -0.672163 5.725043 3.106018 0.400230 -0.269280 0.202840 18.288584 -11.230770 2.889014 -0.154825 1.915151 -11.521379 6.276176 -6.728849 22.089205 -0.623666 -4.188159 3.263763 -0.148720 0.789650 0.472320 -3.768865 -1.520557 -7.636144 11.693074 -0.037859 12.695978 -4.103406 1.527420 0.442151 3.189725 -3.833640 -9.454685 -7.968047 4.102646 34.102987 -2.333250 1.792320 -16.755220 -29.242668 -9.813564 3.308138 -48.243114 -2.633598 -3.705003 -19.688872 -21.896248 0.363712 -3.828873 2.574775 1.149230 0.295810 -0.068190 0.477910 22.662719 14.630889 6.863226 51.630559 6.978754 -5.471580 20.569868 23.278128 2.098618 1.679665 -1.187833 -0.503620 0.575370 0.117570 -0.284680 
0.346780 16.743290 -0.993610 -4.840332 -4.052648 0.867633 -14.987538 13.629549 3.068469 4.471163 -1.603019 -12.612599 -9.923325 8.340573 22.480628 -0.637030 5.857768 3.039020 0.424050 -0.237670 0.201060 18.276572 -11.201943 2.880438 -0.479176 2.068783 -11.780083 6.789555 -7.002236 22.937775 -0.650396 -4.304071 3.214127 -0.136140 0.770700 0.485550 -3.743439 -1.596063 -7.664908 11.642330 -0.177741 13.247604 -4.050818 1.469643 0.274186 3.134398 -3.955704 -9.458676 -8.199849 4.195443 33.883823 -1.982520 1.737490 -17.079330 -28.996565 -9.643438 3.241290 -47.692247 -2.566717 -3.816094 -20.521659 -22.495760 0.590227 -3.807770 2.622285 1.146980 0.286190 -0.055470 0.487950 22.537656 14.519525 6.847682 50.801186 6.796538 -5.565986 21.362454 23.656719 2.275152 1.679811 -1.217226 -0.482210 0.549780 0.102970 -0.277740 
0.349890 16.730970 -1.003070 -4.868642 -3.873372 0.615715 -14.996495 13.635032 3.104175 4.882958 -1.756569 -13.106547 -10.419776 8.749975 23.583144 -0.588905 6.056799 2.950361 0.443980 -0.211420 0.202200 18.263479 -11.158389 2.872475 -0.871597 2.285428 -12.138193 7.441862 -7.372491 24.074006 -0.685068 -4.460886 3.146662 -0.126560 0.754290 0.496990 -3.716600 -1.692903 -7.706092 11.665808 -0.373918 13.942649 -4.027602 1.391837 0.053574 3.089184 -4.096662 -9.487355 -8.481836 4.226327 33.631265 -1.724100 1.641770 -17.354370 -28.777792 -9.494697 3.183346 -46.860645 -2.371626 -3.973659 -21.445848 -23.118374 0.845347 -3.785716 2.666368 1.144840 0.275940 -0.042690 0.496620 22.414702 14.428157 6.864238 49.700475 6.463026 -5.741471 22.288218 24.161677 2.490395 1.683136 -1.245317 -0.463690 0.528150 0.088460 -0.270090 
0.353110 16.714400 -1.014990 -4.896688 -3.781589 0.405255 -15.009974 13.615389 3.154468 5.455109 -1.942548 -13.725958 -11.221478 9.312032 24.772239 -0.531734 6.328210 2.837105 0.464120 -0.188110 0.206440 18.250666 -11.098199 2.861693 -1.306939 2.578252 -12.663578 8.126331 -7.802229 25.438178 -0.723875 -4.653850 3.066926 -0.117380 0.743210 0.510940 -3.682786 -1.779028 -7.751793 11.636223 -0.534051 14.647682 -3.992872 1.347454 -0.190619 3.067528 -4.148705 -9.439741 -8.560436 4.190094 33.198978 -1.638910 1.584350 -17.553550 -28.604656 -9.258641 3.057264 -45.735991 -2.164944 -4.066835 -22.306293 -23.577224 1.092254 -3.773265 2.709187 1.140330 0.272150 -0.035130 0.504020 22.288689 14.186613 6.817244 48.395335 6.104892 -5.907687 23.284032 24.790375 2.748920 1.681007 -1.276539 -0.446470 0.507820 0.076730 -0.264870 
0.358840 16.692310 -1.025440 -4.977835 -3.729299 0.251240 -15.018157 13.563510 3.203554 6.084911 -2.143250 -14.382782 -12.075181 9.931656 26.002504 -0.469560 6.620045 2.713506 0.489120 -0.157110 0.216850 18.248890 -11.028953 2.857238 -1.869278 2.919617 -13.285881 9.124402 -8.374533 26.873674 -0.771035 -4.898356 2.967008 -0.103260 0.725720 0.519890 -3.673747 -1.822855 -7.792341 11.780151 -0.686680 15.240825 -4.081164 1.306050 -0.342365 3.073232 -4.156385 -9.344574 -8.515247 4.070701 32.594174 -1.622240 1.517200 -17.749000 -28.268229 -8.948454 2.893200 -44.618992 -2.053011 -4.106729 -23.013609 -23.924098 1.319110 -3.761203 2.753800 1.130230 0.266960 -0.030330 0.507290 21.921451 13.818807 6.722870 47.159850 5.806416 -6.037751 24.210024 25.474783 3.009045 1.681396 -1.312900 -0.427040 0.484260 0.061870 -0.261840 
0.364530 16.667500 -1.036030 -4.991462 -3.691117 0.088199 -15.031069 13.495426 3.263432 6.714328 -2.353091 -15.008739 -13.046695 10.614375 27.194418 -0.395471 6.932921 2.582750 0.519940 -0.119610 0.232950 18.245157 -10.949800 2.853508 -2.564526 3.267794 -13.935027 10.205124 -9.017897 28.317301 -0.826920 -5.172142 2.857074 -0.087580 0.703430 0.531150 -3.655686 -1.860937 -7.841571 11.796811 -0.799511 15.816971 -4.151948 1.287983 -0.429210 3.089623 -4.094012 -9.288125 -8.350570 3.936437 32.070243 -1.619700 1.489090 -17.932990 -27.865895 -8.730163 2.773346 -43.406932 -1.947057 -4.145765 -23.604133 -24.262748 1.534226 -3.745428 2.801123 1.119240 0.260500 -0.021270 0.512090 21.481566 13.507561 6.660739 45.958246 5.486560 -6.190346 24.970463 26.223584 3.254325 1.683022 -1.352164 -0.402940 0.456330 0.040880 -0.258350 
0.371090 16.639940 -1.046160 -4.939987 -3.644911 -0.027730 -15.048158 13.412682 3.327217 7.249999 -2.580163 -15.656124 -13.982617 11.305878 28.387551 -0.312999 7.247583 2.453863 0.549230 -0.078710 0.246240 18.240700 -10.864867 2.852172 -3.356132 3.607823 -14.660357 11.304737 -9.705429 29.726350 -0.885533 -5.464377 2.742209 -0.070020 0.684140 0.544190 -3.631607 -1.885550 -7.890312 11.692735 -0.878695 16.305443 -4.209598 1.272687 -0.455185 3.134316 -3.968511 -9.234399 -8.045240 3.799995 31.481819 -1.696220 1.520320 -17.989060 -27.377809 -8.516116 2.662633 -42.226591 -1.880706 -4.178196 -23.935677 -24.631046 1.721778 -3.734381 2.846279 1.100930 0.258840 -0.011100 0.519490 20.909941 13.172937 6.597246 44.761243 5.187092 -6.310649 25.757403 27.021181 3.521661 1.686432 -1.393713 -0.376360 0.428710 0.017880 -0.250560 
0.376690 16.609540 -1.054650 -4.835149 -3.599495 -0.076845 -15.067499 13.314574 3.393542 7.790177 -2.788444 -16.268544 -15.018532 12.021352 29.399980 -0.226310 7.562978 2.324515 0.569760 -0.042370 0.246400 18.238172 -10.770896 2.853067 -4.192148 3.923899 -15.386124 12.424688 -10.416103 30.995159 -0.943378 -5.763990 2.623048 -0.054570 0.671810 0.561780 -3.607729 -1.902422 -7.936217 11.508898 -0.916735 16.619126 -4.209209 1.252071 -0.410887 3.142357 -3.853611 -9.168318 -7.755999 3.722652 30.872666 -1.728150 1.557250 -17.860170 -26.824297 -8.263952 2.563063 -41.121872 -1.814642 -4.206651 -24.083429 -25.090254 1.894470 -3.733629 2.894325 1.075100 0.263310 -0.004280 0.525100 20.356096 12.791613 6.514604 43.536614 4.885747 -6.395006 26.363947 27.817135 3.781243 1.687777 -1.434154 -0.347180 0.399630 0.004350 -0.238060 
0.383930 16.578250 -1.063350 -4.754088 -3.461043 -0.182640 -15.086363 13.222094 3.459405 8.302741 -3.007202 -16.824994 -15.936264 12.698217 30.404186 -0.150740 7.873915 2.201590 0.594540 -0.010090 0.249870 18.235687 -10.672683 2.859786 -5.051495 4.198018 -16.020556 13.567092 -11.169340 32.153991 -1.008679 -6.072348 2.506278 -0.041260 0.662560 0.581060 -3.586114 -1.936678 -7.989258 11.394097 -0.994430 16.991267 -4.243818 1.211058 -0.362658 3.162551 -3.756324 -9.145261 -7.538323 3.669160 30.450854 -1.657590 1.541650 -17.843810 -26.320080 -8.107218 2.485962 -40.013432 -1.745865 -4.240906 -23.992661 -25.507009 1.999312 -3.729315 2.935434 1.062840 0.266430 0.002360 0.533730 19.825138 12.502323 6.486421 42.247500 4.501168 -6.503327 26.820799 28.513039 4.006287 1.681023 -1.469370 -0.323380 0.374500 -0.008440 -0.230150 
0.388600 16.548320 -1.072740 -4.751889 -3.353193 -0.357177 -15.105862 13.126801 3.535047 9.016029 -3.183487 -17.304509 -17.014922 13.445673 31.280467 -0.059114 8.183715 2.069574 0.622780 0.034420 0.261210 18.232613 -10.571137 2.869243 -5.743448 4.434921 -16.485051 14.595518 -11.862774 33.156372 -1.075480 -6.350728 2.393910 -0.028500 0.631770 0.597630 -3.561466 -1.970712 -8.056875 11.332135 -1.063541 17.443048 -4.302783 1.201406 -0.304412 3.243187 -3.590761 -9.149045 -7.245631 3.529297 30.332133 -1.756820 1.579420 -18.010310 -25.938582 -8.044983 2.416684 -38.780980 -1.742187 -4.240715 -23.602353 -25.690734 2.031234 -3.714256 2.981170 1.046040 0.258230 0.018690 0.531890 19.289501 12.289862 6.489914 41.013467 4.142725 -6.584955 26.956310 29.037221 4.141106 1.686734 -1.502537 -0.286340 0.336280 -0.026000 -0.222290 
0.390090 16.516650 -1.081240 -4.713312 -3.222635 -0.515338 -15.130685 13.027270 3.619262 9.762082 -3.366455 -17.784019 -18.164114 14.241226 32.122692 0.024802 8.520864 1.934947 0.653100 0.069330 0.282310 18.226976 -10.458703 2.876173 -6.430578 4.662418 -16.947897 15.553038 -12.547334 34.132026 -1.142945 -6.621315 2.286901 -0.014550 0.604750 0.611390 -3.525907 -2.021815 -8.125584 11.139199 -1.132084 17.885134 -4.270442 1.175623 -0.278756 3.270285 -3.473699 -9.103916 -7.037149 3.413290 30.140921 -1.821480 1.602250 -18.346510 -25.668875 -7.940299 2.320460 -37.475990 -1.692125 -4.222493 -23.034798 -25.774667 1.999210 -3.699886 3.014029 1.041500 0.248440 0.033450 0.532030 18.981884 12.056349 6.448436 39.632893 3.811255 -6.618250 26.849002 29.376983 4.217611 1.687426 -1.526144 -0.262250 0.309390 -0.043120 -0.222550 
0.393650 16.485720 -1.091490 -4.767858 -3.106667 -0.678888 -15.150140 12.918774 3.706054 10.616907 -3.531938 -18.269842 -19.341793 15.046783 32.867191 0.092758 8.868980 1.802197 0.669950 0.084130 0.298010 18.228415 -10.333957 2.894588 -7.099687 4.910817 -17.406982 16.665295 -13.298303 35.010635 -1.211811 -6.898946 2.181066 -0.005050 0.588120 0.617490 -3.508702 -2.074548 -8.201813 11.192633 -1.258833 18.369843 -4.334521 1.141608 -0.278732 3.295571 -3.444896 -9.066044 -7.002574 3.326511 30.019880 -1.938880 1.591020 -18.742380 -25.511570 -7.863893 2.217095 -36.120443 -1.588647 -4.210743 -22.339534 -25.867746 1.928659 -3.691658 3.025497 1.048480 0.240110 0.041620 0.528560 18.769009 11.886129 6.435376 38.251548 3.442370 -6.679762 26.339751 29.611626 4.204754 1.680976 -1.530408 -0.256320 0.299450 -0.047620 -0.229220 
0.396200 16.455150 -1.101290 -4.777634 -2.967092 -0.829591 -15.172411 12.813520 3.796897 11.421715 -3.699926 -18.757410 -20.519830 15.831934 33.508174 0.158497 9.207654 1.680420 0.686140 0.090070 0.319420 18.227671 -10.202051 2.913095 -7.816094 5.138809 -17.847818 17.779626 -14.051489 35.808546 -1.281075 -7.166605 2.078755 0.002070 0.575760 0.623180 -3.484642 -2.150002 -8.277876 11.177517 -1.396120 18.860015 -4.294037 1.090685 -0.308416 3.245418 -3.560859 -9.040033 -7.232139 3.282601 29.837859 -1.947130 1.505330 -19.183550 -25.410268 -7.787167 2.133927 -34.790814 -1.391557 -4.221741 -21.547701 -25.976647 1.824182 -3.682715 3.030232 1.060490 0.229620 0.049880 0.526990 18.775949 11.818500 6.441819 36.671826 3.034812 -6.725902 25.599453 29.710517 4.134334 1.675791 -1.528266 -0.256140 0.296670 -0.052490 -0.237470 
